<svg width="140" height="32" viewBox="0 0 140 32" fill="none" xmlns="http://www.w3.org/2000/svg">
<path d="M12.1165 6.56324L27.7501 6.49465L28.4479 0.0107422L10.3874 0.102771L8.13358 0.113559C1.60246 0.627583 1.02786 7.84014 1.02786 7.84014L0 30.4356L8.80989 30.4824L9.33273 19.7312L26.4457 19.6428L26.8383 13.2149L9.59326 13.3213C9.59326 13.3213 9.61468 11.4329 9.82881 9.3137C9.86604 8.66732 10.1088 8.05036 10.5211 7.55475C10.9333 7.05913 11.4929 6.71138 12.1165 6.56324Z" fill="white"/>
<path d="M57.4421 0.00897172L55.7897 16.8635C54.8493 26.4568 53.3075 30.7151 41.4569 30.7151C31.4193 30.7151 28.3394 26.2783 29.2548 16.9537L30.9161 0H39.6296L37.9291 17.3487C37.3937 22.7288 37.8952 23.8417 41.7532 23.8417C45.4666 23.8417 46.8603 22.5936 47.3742 17.3487L49.0748 0L57.4421 0.00897172Z" fill="white"/>
<path d="M78.154 0.0279917L77.2618 8.9576C76.8444 11.9233 76.6345 14.9151 76.6336 17.9106C75.7254 15.6435 74.6707 13.6848 73.5626 11.2824L68.3662 0.0298081H60.3362L57.2936 30.7359H64.6421L65.9037 21.4871C66.2338 18.1577 66.6442 15.1331 66.9368 12.2726C67.904 14.5613 69.0086 16.8393 69.9169 18.8918L74.9473 28.9378C75.2547 29.6265 75.7638 30.2033 76.4058 30.5903C77.0479 30.9774 77.792 31.156 78.5376 31.1021C79.6373 31.1176 80.7011 30.7068 81.5102 29.954C82.3194 29.2012 82.8125 28.1637 82.8882 27.0548L85.4881 0.0244141L78.154 0.0279917Z" fill="white"/>
<path d="M88.609 15.5684C87.9973 15.9109 87.4766 16.3977 87.0913 16.9875C86.706 17.5773 86.4675 18.2526 86.3962 18.9556L85.6647 27.1854C85.6062 27.6811 85.6531 28.1837 85.8023 28.6596C85.9515 29.1355 86.1996 29.5737 86.5298 29.9449C86.8601 30.3161 87.265 30.6118 87.7174 30.8121C88.1698 31.0124 88.6594 31.1128 89.1533 31.1064H106.297C107.347 31.0813 108.353 30.6689 109.124 29.9468C109.895 29.2246 110.378 28.2425 110.483 27.1854L111.216 18.9556C111.289 18.2957 111.177 17.6284 110.893 17.0296C110.609 16.4308 110.165 15.9246 109.61 15.5684C110.222 15.226 110.743 14.7392 111.128 14.1494C111.513 13.5596 111.752 12.8844 111.823 12.1813L112.556 3.95156C112.615 3.4559 112.567 2.95338 112.418 2.47761C112.269 2.00183 112.021 1.56376 111.691 1.19262C111.36 0.821476 110.956 0.525838 110.503 0.325441C110.051 0.125045 109.562 0.0244882 109.068 0.0305305H91.9245C90.8734 0.0551779 89.8674 0.467406 89.096 1.18959C88.3246 1.91177 87.841 2.8941 87.7364 3.95156L87.003 12.1813C86.9303 12.8412 87.0422 13.5085 87.3261 14.1073C87.61 14.7061 88.0545 15.2123 88.609 15.5684ZM93.3057 19.6356C93.3686 19.1951 93.5885 18.793 93.9239 18.5048C94.2594 18.2165 94.6874 18.0619 95.1276 18.07H102.646C102.852 18.057 103.059 18.0887 103.252 18.1628C103.446 18.237 103.622 18.3519 103.768 18.5001C103.914 18.6482 104.027 18.8261 104.099 19.0219C104.172 19.2177 104.203 19.4269 104.189 19.6356L103.896 22.9199C103.834 23.3604 103.614 23.7624 103.278 24.0507C102.943 24.3389 102.515 24.4935 102.075 24.4854H94.5584C94.3519 24.4984 94.145 24.4668 93.9515 24.3927C93.758 24.3185 93.5824 24.2036 93.4364 24.0554C93.2903 23.9073 93.1772 23.7294 93.1045 23.5336C93.0318 23.3378 93.0013 23.1286 93.0148 22.9199L93.3057 19.6356ZM94.3389 8.02764C94.4019 7.58719 94.6217 7.18511 94.9572 6.89687C95.2926 6.60862 95.7206 6.45407 96.1608 6.46215H103.677C103.884 6.44914 104.09 6.48075 104.284 6.5549C104.477 6.62905 104.653 6.744 104.799 6.89214C104.945 7.04027 105.058 7.21818 105.131 7.41398C105.204 7.60978 105.234 7.81896 105.221 8.02764L104.928 11.312C104.865 11.7524 104.645 12.1545 104.31 12.4428C103.974 12.731 103.546 12.8856 103.106 12.8775H95.5898C95.3833 12.8905 95.1764 12.8589 94.9829 12.7847C94.7895 12.7106 94.6139 12.5956 94.4678 12.4475C94.3218 12.2994 94.2086 12.1215 94.136 11.9257C94.0633 11.7299 94.0327 11.5207 94.0463 11.312L94.3389 8.02764Z" fill="white"/>
<path d="M116.03 15.5684C115.418 15.9109 114.898 16.3977 114.512 16.9875C114.127 17.5773 113.889 18.2526 113.817 18.9556L113.086 27.1854C113.027 27.6811 113.074 28.1837 113.223 28.6596C113.373 29.1355 113.621 29.5737 113.951 29.9449C114.281 30.3161 114.686 30.6118 115.139 30.8121C115.591 31.0124 116.081 31.1128 116.574 31.1064H133.718C134.769 31.0813 135.774 30.6689 136.545 29.9468C137.316 29.2246 137.799 28.2425 137.904 27.1854L138.636 18.9556C138.708 18.2957 138.597 17.6284 138.313 17.0296C138.029 16.4308 137.584 15.9246 137.03 15.5684C137.641 15.226 138.162 14.7392 138.547 14.1494C138.933 13.5596 139.171 12.8844 139.242 12.1813L139.976 3.95156C140.034 3.4559 139.987 2.95338 139.838 2.47761C139.688 2.00183 139.44 1.56376 139.11 1.19262C138.78 0.821476 138.375 0.525838 137.923 0.325441C137.47 0.125045 136.981 0.0244882 136.487 0.0305305H119.344C118.293 0.0556119 117.287 0.468052 116.516 1.19019C115.745 1.91234 115.262 2.8944 115.158 3.95156L114.424 12.1813C114.351 12.8412 114.463 13.5085 114.747 14.1073C115.031 14.7061 115.476 15.2123 116.03 15.5684ZM120.727 19.6356C120.79 19.1951 121.01 18.793 121.345 18.5048C121.681 18.2165 122.109 18.0619 122.549 18.07H130.065C130.271 18.057 130.478 18.0887 130.672 18.1628C130.865 18.237 131.041 18.3519 131.187 18.5001C131.333 18.6482 131.446 18.8261 131.519 19.0219C131.592 19.2177 131.622 19.4269 131.609 19.6356L131.316 22.9199C131.253 23.3604 131.033 23.7624 130.698 24.0507C130.362 24.3389 129.934 24.4935 129.494 24.4854H121.978C121.771 24.4984 121.564 24.4668 121.371 24.3927C121.177 24.3185 121.002 24.2036 120.856 24.0554C120.71 23.9073 120.597 23.7294 120.524 23.5336C120.451 23.3378 120.421 23.1286 120.434 22.9199L120.727 19.6356ZM121.76 8.02764C121.823 7.58719 122.043 7.18511 122.378 6.89687C122.714 6.60862 123.142 6.45407 123.582 6.46215H131.098C131.305 6.44914 131.512 6.48075 131.705 6.5549C131.898 6.62905 132.074 6.744 132.22 6.89214C132.366 7.04027 132.479 7.21818 132.552 7.41398C132.625 7.60978 132.655 7.81896 132.642 8.02764L132.349 11.312C132.286 11.7524 132.066 12.1545 131.731 12.4428C131.395 12.731 130.967 12.8856 130.527 12.8775H123.011C122.805 12.8902 122.598 12.8584 122.405 12.7841C122.211 12.7099 122.036 12.5949 121.89 12.4468C121.744 12.2987 121.631 12.1209 121.559 11.9252C121.486 11.7296 121.456 11.5205 121.469 11.312L121.76 8.02764Z" fill="white"/>
</svg>
